#!OML:ASF E:\motion texture\Top Level 1\Subject 1\Session 1\male.ASF
:FULLY-SPECIFIED
:DEGREES
373
root -19.9581 18.1596 3.02924 809.276 -78.6403 -809.093
lowerback 5.05415 1.69425 9.8096
upperback -1.24694 2.92989 4.02626
thorax -3.87169 1.21148 -1.51972
lowerneck -19.3704 -5.77291 -6.51776
upperneck 13.1844 -7.23721 6.53514
head 7.71464 -3.171 2.31877
rclavicle -1.17409e-014 1.55052e-014
rhumerus -5.77257 14.0882 -88.1596
rradius 80.2562
rwrist -1.8752
rhand -12.8801 -7.03476
rfingers 7.12502
rthumb 13.2088 -36.5963
lclavicle -1.17409e-014 1.55052e-014
lhumerus -48.7833 -7.6856 84.815
lradius 52.4659
lwrist -4.10744
lhand -7.73212 1.4487
lfingers 7.12502
lthumb 18.1666 30.6204
rfemur -7.97868 3.30753 37.7344
rtibia 22.9344
rfoot 713.09 -8.9858
rtoes 14.7351
lfemur -63.3878 6.75368 -7.87882
ltibia 61.4502
lfoot 358.511 188.531
ltoes -2.80677
374
root -20.0858 18.1932 3.03193 809.092 -78.4812 -809.128
lowerback 5.30372 1.75728 10.0435
upperback -1.18772 3.05611 4.0545
thorax -3.92935 1.26609 -1.63516
lowerneck -19.3565 -5.81661 -6.61524
upperneck 13.1537 -7.2716 6.55149
head 7.70873 -3.19114 2.33551
rclavicle -2.01794e-015 -1.82882e-014
rhumerus -5.4358 13.8896 -87.9869
rradius 80.2738
rwrist -1.70072
rhand -12.8824 -6.98027
rfingers 7.12502
rthumb 13.2066 -36.542
lclavicle -2.01794e-015 -1.82882e-014
lhumerus -49.0154 -7.36296 84.4316
lradius 52.6319
lwrist -3.99538
lhand -7.81416 1.34225
lfingers 7.12502
lthumb 18.0876 30.5212
rfemur -7.12775 3.18597 37.9038
rtibia 22.5667
rfoot 713.332 -8.93483
rtoes 14.1043
lfemur -65.6102 6.62677 -8.06453
ltibia 60.4491
lfoot 358.267 188.579
ltoes -2.86241
375
root -20.2138 18.2242 3.03479 808.894 -78.2986 -809.103
lowerback 5.50756 1.80782 10.2832
upperback -1.14943 3.16257 4.10211
thorax -3.98512 1.31002 -1.73105
lowerneck -19.3293 -5.84839 -6.70751
upperneck 13.1365 -7.28966 6.55055
head 7.70305 -3.20503 2.34806
rclavicle 1.89894e-015 -4.77083e-015
rhumerus -5.15993 13.7016 -87.8427
rradius 80.2841
rwrist -1.57161
rhand -12.8596 -6.94039
rfingers 7.12502
rthumb 13.2286 -36.5006
lclavicle 1.89894e-015 -4.77083e-015
lhumerus -49.2343 -7.0106 84.0777
lradius 52.7451
lwrist -3.88323
lhand -7.92506 1.20923
lfingers 7.12502
lthumb 17.9809 30.398
rfemur -6.36311 3.04317 38.0919
rtibia 22.2617
rfoot 713.57 -8.85159
rtoes 13.4779
lfemur -67.7766 6.49512 -8.20615
ltibia 59.6172
lfoot 358.076 188.556
ltoes -2.88934
376
root -20.3427 18.2532 3.03776 808.744 -78.1194 -809.093
lowerback 5.67452 1.85281 10.5016
upperback -1.13482 3.25826 4.15767
thorax -4.04701 1.34812 -1.80539
lowerneck -19.2652 -5.86906 -6.79119
upperneck 13.1301 -7.29614 6.53845
head 7.69318 -3.21477 2.35776
rclavicle -1.06811e-014 -2.84262e-014
rhumerus -4.96602 13.5168 -87.7344
rradius 80.291
rwrist -1.49762
rhand -12.8412 -6.91511
rfingers 7.12502
rthumb 13.2462 -36.4742
lclavicle -1.06811e-014 -2.84262e-014
lhumerus -49.459 -6.65954 83.7616
lradius 52.8123
lwrist -3.7437
lhand -8.04793 1.09444
lfingers 7.12502
lthumb 17.8627 30.2941
rfemur -5.66208 2.89758 38.2711
rtibia 22.0086
rfoot 713.801 -8.7427
rtoes 12.8411
lfemur -69.8544 6.37047 -8.33229
ltibia 58.9694
lfoot 357.956 188.453
ltoes -2.81834
377
root -20.4723 18.2803 3.0405 808.655 -77.9629 -809.119
lowerback 5.81238 1.89358 10.6791
upperback -1.12976 3.3432 4.21246
thorax -4.10519 1.38186 -1.85658
lowerneck -19.2222 -5.8842 -6.85328
upperneck 13.1559 -7.29835 6.50869
head 7.69563 -3.22237 2.35822
rclavicle -1.35987e-014 2.62396e-014
rhumerus -4.82235 13.3396 -87.6542
rradius 80.294
rwrist -1.47575
rhand -12.8258 -6.89771
rfingers 7.12502
rthumb 13.2611 -36.4558
lclavicle -1.35987e-014 2.62396e-014
lhumerus -49.6709 -6.32034 83.4794
lradius 52.8431
lwrist -3.5652
lhand -8.16376 1.01591
lfingers 7.12502
lthumb 17.7513 30.2257
rfemur -5.00803 2.7671 38.4241
rtibia 21.7955
rfoot 714.019 -8.62207
rtoes 12.1903
lfemur -71.8303 6.25864 -8.46481
ltibia 58.504
lfoot 357.893 188.277
ltoes -2.79746
